<svg width="150" height="150" viewBox="0 0 150 150" fill="none" xmlns="http://www.w3.org/2000/svg">
<path d="M45.6682 36.6954L75.0008 66.025L104.333 36.7842C105.501 35.5959 107.113 34.9516 108.778 35.0067C112.121 35.2227 114.784 37.8854 115 41.2281C115.016 42.8333 114.373 44.3753 113.222 45.4943L83.8005 75.0017L113.222 104.509C114.373 105.628 115.016 107.17 115 108.775C114.784 112.118 112.121 114.781 108.778 114.997C107.113 115.052 105.501 114.407 104.333 113.219L75.0008 83.9784L45.7571 113.219C44.5892 114.407 42.9776 115.052 41.3128 114.997C37.904 114.819 35.1796 112.095 35.0019 108.686C34.9859 107.081 35.6285 105.539 36.7796 104.42L66.201 75.0017L36.6907 45.4943C35.5716 44.3602 34.9619 42.8208 35.0019 41.2281C35.2178 37.8854 37.8809 35.2227 41.2239 35.0067C42.8754 34.9285 44.4852 35.5399 45.6682 36.6954Z" fill="#000000"/>
</svg>
